<svg version="1" xmlns="http://www.w3.org/2000/svg" width="346.667" height="346.667" viewBox="0 0 260.000000 260.000000"><path d="M0 130v130h260V0H0v130zM132 17.7c0 1 7.6 18 16.8 37.8l16.8 36 40.5.2c22.2.1 40.7.3 41.1.3.6 0-40.4 37.8-58.5 54l-4 3.6 2.1 9.4c1.2 5.2 5.5 24.1 9.7 41.9 4.1 17.9 7.4 32.8 7.3 33.2-.2.4-15.6-10-34.3-23.1-18.7-13.2-34.6-24-35.3-24-.6 0-18.1 11.5-38.8 25.6-20.7 14-37.7 25.4-37.9 25.2-.2-.2 4.6-19.6 10.7-43.2 6-23.5 10.7-43.4 10.5-44-.3-.7-15.9-14.1-34.8-29.7L9.6 92.5l44.3-.5 44.4-.5 15.8-36c8.7-19.8 15.8-36.8 15.9-37.8 0-.9.5-1.7 1-1.7.6 0 1 .8 1 1.7z"/></svg>